<svg xmlns="http://www.w3.org/2000/svg" width="24" height="24" viewBox="0 0 24 24" fill="none">
  <g clip-path="url(#clip0_213_8612)">
    <path d="M24 12.0703C24 18.0593 19.606 23.0243 13.87 23.9253V15.5623H16.659L17.19 12.1023H13.87V9.85731C13.87 8.91031 14.334 7.98831 15.82 7.98831H17.329V5.04231C17.329 5.04231 15.959 4.80831 14.65 4.80831C11.916 4.80831 10.13 6.46531 10.13 9.46431V12.1013H7.091V15.5613H10.13V23.9243C4.395 23.0223 0 18.0583 0 12.0703C0 5.44331 5.373 0.0703125 12 0.0703125C18.627 0.0703125 24 5.44231 24 12.0703Z" fill="#231921"/>
  </g>
  <defs>
    <clipPath id="clip0_213_8612">
      <rect width="24" height="24" fill="white"/>
    </clipPath>
  </defs>
</svg>