<svg xmlns="http://www.w3.org/2000/svg" width="32" height="32" viewBox="0 0 32 32" fill="none">
  <g clip-path="url(#clip0_213_8584)">
    <path d="M31.3333 14.6667C30.9653 14.6667 30.6667 14.368 30.6667 14C30.6667 7.016 24.984 1.33333 18 1.33333C17.632 1.33333 17.3333 1.03467 17.3333 0.666667C17.3333 0.298667 17.632 0 18 0C25.72 0 32 6.28 32 14C32 14.368 31.7013 14.6667 31.3333 14.6667ZM26.6667 14C26.6667 9.22133 22.7787 5.33333 18 5.33333C17.632 5.33333 17.3333 5.632 17.3333 6C17.3333 6.368 17.632 6.66667 18 6.66667C22.044 6.66667 25.3333 9.956 25.3333 14C25.3333 14.368 25.632 14.6667 26 14.6667C26.368 14.6667 26.6667 14.368 26.6667 14ZM29.6453 29.6947L30.9493 28.1947C31.6267 27.5173 32 26.616 32 25.6587C32 24.7013 31.6267 23.7987 30.884 23.0653L27.6227 20.568C26.2253 19.1707 23.952 19.1693 22.552 20.564L20.5093 22.556C15.6027 20.5573 11.6053 16.556 9.45067 11.4853L11.4347 9.452C12.8333 8.05333 12.8333 5.77733 11.492 4.444L8.88 1.05333C7.524 -0.302667 5.12933 -0.270667 3.84 1.02267L2.27467 2.388C0.806667 3.848 0 5.83067 0 7.968C0 18.3 13.7 32 24.032 32C26.1693 32 28.1507 31.1933 29.6453 29.6947ZM7.87867 1.928L10.4907 5.31867C11.3693 6.19733 11.3693 7.628 10.4853 8.51333L8.18933 10.868C8.00533 11.0573 7.94933 11.3373 8.048 11.5827C10.3533 17.3227 14.8653 21.8333 20.4293 23.956C20.672 24.0493 20.9467 23.992 21.132 23.812L23.4867 21.516C23.4867 21.516 23.4907 21.512 23.492 21.5093C24.344 20.656 25.764 20.6013 26.7453 21.5667L30.0067 24.064C30.8853 24.9427 30.8853 26.372 29.976 27.2853L28.6707 28.7853C27.46 29.9987 25.812 30.6667 24.032 30.6667C14.4853 30.6667 1.33333 17.5147 1.33333 7.968C1.33333 6.188 2.00133 4.54 3.18267 3.36L4.74933 1.99333C5.19733 1.54533 5.788 1.32667 6.36933 1.32667C6.928 1.32667 7.47733 1.52933 7.88 1.92933L7.87867 1.928Z" fill="#231921"/>
  </g>
  <defs>
    <clipPath id="clip0_213_8584">
      <rect width="32" height="32" fill="white"/>
    </clipPath>
  </defs>
</svg>