<svg xmlns="http://www.w3.org/2000/svg" viewBox="0 0 20 20" fill="none">
  <g clip-path="url(#clip0_143_7219)">
    <path d="M14 8C15.654 8 17 6.654 17 5C17 3.346 15.654 2 14 2C12.346 2 11 3.346 11 5C11 5.35 11.061 5.687 11.172 5.999L7.341 8.127C6.791 7.441 5.946 7 5 7C3.346 7 2 8.346 2 10C2 11.654 3.346 13 5 13C5.946 13 6.791 12.559 7.341 11.873L11.171 14.001C11.06 14.314 10.999 14.65 10.999 15C10.999 16.654 12.345 18 13.999 18C15.653 18 16.999 16.654 16.999 15C16.999 13.346 15.653 12 13.999 12C13.053 12 12.208 12.441 11.658 13.127L7.828 10.999C7.939 10.686 8 10.35 8 10C8 9.65 7.939 9.314 7.828 9.001L11.659 6.873C12.209 7.559 13.054 8 14 8ZM14 13C15.103 13 16 13.897 16 15C16 16.103 15.103 17 14 17C12.897 17 12 16.103 12 15C12 13.641 13.259 13 14 13ZM5 12C3.897 12 3 11.103 3 10C3 8.897 3.897 8 5 8C6.103 8 7 8.897 7 10C7 11.103 6.103 12 5 12ZM14 3C15.103 3 16 3.897 16 5C16 6.103 15.103 7 14 7C12.872 7 12 6 12 5C12 3.897 12.897 3 14 3ZM17.5 -2H2.5C0.0190001 -2 -2 0.0190001 -2 2.5V17.5C-2 19.981 0.0190001 22 2.5 22H17.5C19.981 22 22 19.981 22 17.5V2.5C22 0.0190001 19.981 -2 17.5 -2ZM21 17.5C21 19.43 19.43 21 17.5 21H2.5C0.57 21 -1 19.43 -1 17.5V2.5C-1 0.57 0.57 -1 2.5 -1H17.5C19.43 -1 21 0.57 21 2.5V17.5Z" fill="#231921"/>
  </g>
  <defs>
    <clipPath id="clip0_143_7219">
      <rect width="20" height="20" fill="white"/>
    </clipPath>
  </defs>
</svg>