<svg xmlns="http://www.w3.org/2000/svg" width="32" height="32" viewBox="0 0 32 32" fill="none">
  <g clip-path="url(#clip0_213_8596)">
    <path d="M23.3333 14.6667C18.5547 14.6667 14.6667 18.5547 14.6667 23.3333C14.6667 28.112 18.5547 32 23.3333 32C28.112 32 32 28.112 32 23.3333C32 18.5547 28.112 14.6667 23.3333 14.6667ZM23.3333 30.6667C19.2907 30.6667 16 27.3773 16 23.3333C16 19.2893 19.2907 16 23.3333 16C27.376 16 30.6667 19.2893 30.6667 23.3333C30.6667 27.3773 27.376 30.6667 23.3333 30.6667ZM24 23.0573L26.472 25.5293L25.5293 26.472L22.668 23.6107V19.3347H24.0013V23.0587L24 23.0573ZM28.6667 2.66667H24V0H22.6667V2.66667H9.33333V0H8V2.66667H3.33333C1.496 2.66667 0 4.16267 0 6V32H16.0373C15.5547 31.5933 15.1093 31.1467 14.7 30.6667H1.33333V12H30.6667V14.7013C31.1467 15.1093 31.5933 15.556 32 16.0387V6C32 4.16267 30.5053 2.66667 28.6667 2.66667ZM1.33333 10.6667V6C1.33333 4.89733 2.23067 4 3.33333 4H28.6667C29.7693 4 30.6667 4.89733 30.6667 6V10.6667H1.33333Z" fill="#231921"/>
  </g>
  <defs>
    <clipPath id="clip0_213_8596">
      <rect width="32" height="32" fill="white"/>
    </clipPath>
  </defs>
</svg>