<svg xmlns="http://www.w3.org/2000/svg" width="32" height="32" viewBox="0 0 32 32" fill="none">
  <g clip-path="url(#clip0_213_8590)">
    <path d="M30.5947 12.296L28 9.768V3.33333C28 1.496 26.5053 0 24.6667 0H7.33333C5.49467 0 4 1.496 4 3.33333V9.77067L1.40533 12.2947C0.512 13.1667 0 14.3827 0 15.632V31.9987H32V15.6307C32 14.3827 31.488 13.1667 30.5947 12.2947V12.296ZM29.824 13.4427L28 15.2667V11.6307C28 11.6307 29.7693 13.38 29.824 13.4427ZM7.33333 1.33333H24.6667C25.7693 1.33333 26.6667 2.23067 26.6667 3.33333V16.5987L19.3 23.9667C17.5373 25.7293 14.464 25.7293 12.7013 23.9667L5.33467 16.5987V3.33333C5.33467 2.23067 6.23067 1.33333 7.33333 1.33333ZM4 11.632V15.2667L2.176 13.4427C2.23067 13.38 4 11.632 4 11.632ZM30.6667 30.6667H1.33333V15.6333C1.33333 15.2973 1.40133 14.9693 1.5 14.6507L11.7573 24.9093C12.8907 26.0427 14.396 26.6667 16 26.6667C17.604 26.6667 19.1093 26.0427 20.2427 24.9093L30.5013 14.6507C30.6 14.968 30.668 15.296 30.668 15.632L30.6667 30.6667ZM8 10C8 7.42667 10.0933 5.33333 12.6667 5.33333H21.3333C22.804 5.33333 24 6.52933 24 8C24 9.47067 22.804 10.6667 21.3333 10.6667H12.6667V9.33333H21.3333C22.0693 9.33333 22.6667 8.73467 22.6667 8C22.6667 7.26533 22.0693 6.66667 21.3333 6.66667H12.6667C10.828 6.66667 9.33333 8.16267 9.33333 10C9.33333 11.8373 10.828 13.3333 12.6667 13.3333H21.3333V14.6667H12.6667C10.0933 14.6667 8 12.5733 8 10Z" fill="#231921"/>
  </g>
  <defs>
    <clipPath id="clip0_213_8590">
      <rect width="32" height="32" fill="white"/>
    </clipPath>
  </defs>
</svg>