<svg xmlns="http://www.w3.org/2000/svg" width="24" height="24" viewBox="0 0 24 24" fill="none">
  <g clip-path="url(#clip0_215_895)">
    <path d="M23.0019 21.5839H23.2289L22.7939 20.9259C23.0599 20.9259 23.2009 20.7569 23.2029 20.5499C23.2029 20.5419 23.2029 20.5329 23.2019 20.5249C23.2019 20.2429 23.0319 20.1079 22.6829 20.1079H22.1189V21.5839H22.3309V20.9409H22.5919L23.0019 21.5839ZM22.5769 20.7739H22.3309V20.2749H22.6429C22.8039 20.2749 22.9879 20.3009 22.9879 20.5119C22.9879 20.7539 22.8029 20.7739 22.5769 20.7739Z" fill="#231921"/>
    <path d="M17.291 19.0729H14.284V14.3639C14.284 13.2409 14.264 11.7959 12.72 11.7959C11.154 11.7959 10.914 13.0189 10.914 14.2829V19.0729H7.908V9.38888H10.795V10.7119H10.835C11.424 9.70587 12.518 9.10487 13.683 9.14787C16.731 9.14787 17.292 11.1529 17.292 13.7599L17.291 19.0729ZM4.515 8.06487C3.551 8.06487 2.77 7.28388 2.77 6.31988C2.77 5.35588 3.551 4.57487 4.515 4.57487C5.479 4.57487 6.26 5.35588 6.26 6.31988C6.26 7.28388 5.479 8.06487 4.515 8.06487ZM6.018 19.0729H3.008V9.38888H6.018V19.0729ZM18.79 1.78287H1.497C0.68 1.77387 0.01 2.42887 0 3.24587V20.6099C0.01 21.4279 0.68 22.0829 1.497 22.0739H18.79C19.609 22.0839 20.282 21.4289 20.293 20.6099V3.24487C20.281 2.42587 19.608 1.77087 18.79 1.78187" fill="#231921"/>
    <path d="M22.603 19.4507C21.839 19.4577 21.225 20.0837 21.233 20.8477C21.24 21.6117 21.866 22.2257 22.63 22.2177C23.394 22.2107 24.008 21.5847 24 20.8207C23.993 20.0667 23.383 19.4577 22.63 19.4507H22.603ZM22.635 22.0587C21.965 22.0697 21.381 21.5367 21.37 20.8667C21.359 20.1967 21.893 19.6447 22.563 19.6337C23.233 19.6227 23.785 20.1567 23.796 20.8267C23.796 20.8337 23.796 20.8397 23.796 20.8467C23.81 21.5017 23.29 22.0447 22.635 22.0587H22.604H22.635Z" fill="#231921"/>
  </g>
  <defs>
    <clipPath id="clip0_215_895">
      <rect width="24" height="24" fill="white"/>
    </clipPath>
  </defs>
</svg>